<?xml version="1.0" encoding="UTF-8" standalone="no"?>
<!-- Created with Inkscape (http://www.inkscape.org/) -->

<svg
   xmlns:dc="http://purl.org/dc/elements/1.1/"
   xmlns:cc="http://creativecommons.org/ns#"
   xmlns:rdf="http://www.w3.org/1999/02/22-rdf-syntax-ns#"
   xmlns:svg="http://www.w3.org/2000/svg"
   xmlns="http://www.w3.org/2000/svg"
   xmlns:sodipodi="http://sodipodi.sourceforge.net/DTD/sodipodi-0.dtd"
   xmlns:inkscape="http://www.inkscape.org/namespaces/inkscape"
   width="236.6178"
   height="285.72333"
   viewBox="0 0 62.605125 75.597635"
   version="1.1"
   id="svg77"
   sodipodi:docname="pa-logo-small.svg"
   inkscape:version="0.92.4 (5da689c313, 2019-01-14)">
  <defs
     id="defs71" />
  <sodipodi:namedview
     id="base"
     pagecolor="#ffffff"
     bordercolor="#666666"
     borderopacity="1.0"
     inkscape:pageopacity="0.0"
     inkscape:pageshadow="2"
     inkscape:zoom="0.35"
     inkscape:cx="-217.40539"
     inkscape:cy="417.1474"
     inkscape:document-units="mm"
     inkscape:current-layer="layer1"
     showgrid="false"
     units="px"
     fit-margin-top="0"
     fit-margin-left="0"
     fit-margin-right="0"
     fit-margin-bottom="0"
     inkscape:window-width="2560"
     inkscape:window-height="1377"
     inkscape:window-x="-8"
     inkscape:window-y="-8"
     inkscape:window-maximized="1" />
  <metadata
     id="metadata74">
    <rdf:RDF>
      <cc:Work
         rdf:about="">
        <dc:format>image/svg+xml</dc:format>
        <dc:type
           rdf:resource="http://purl.org/dc/dcmitype/StillImage" />
        <dc:title></dc:title>
      </cc:Work>
    </rdf:RDF>
  </metadata>
  <g
     inkscape:label="Layer 1"
     inkscape:groupmode="layer"
     id="layer1"
     transform="translate(-34.465294,-183.60593)">
    <g
       transform="matrix(0.5,0,0,0.5,34.395833,183.65177)"
       id="layer1-1">
      <g
         id="g18"
         transform="matrix(0.35277777,0,0,-0.35277777,-7.729539,158.54402)">
        <g
           id="g20"
           transform="scale(0.1)">
          <path
             inkscape:connector-curvature="0"
             d="m 2320.01,1057.16 c -24.38,-27.72 -39.23,-62.621 -39.23,-99.648 0,-12.332 1.65,-24.871 5.11,-37.301 2.95,-10.641 13.98,-16.883 24.62,-13.922 10.64,2.961 16.88,13.981 13.92,24.621 -2.49,8.949 -3.65,17.828 -3.65,26.602 -0.01,26.187 10.48,51.818 29.28,73.248 7.28,8.3 6.47,20.93 -1.83,28.22 -8.3,7.29 -20.93,6.48 -28.22,-1.82"
             style="fill:#781d3a;fill-opacity:1;fill-rule:nonzero;stroke:none"
             id="path22" />
          <path
             inkscape:connector-curvature="0"
             d="m 2527.48,1144.62 c -2.96,0.11 -5.92,0.17 -8.89,0.17 -49.14,-0.05 -97.56,-15.67 -138.67,-39.4 -9.56,-5.52 -12.83,-17.76 -7.3,-27.32 5.53,-9.56 17.76,-12.83 27.33,-7.3 35.83,20.76 78.16,34.07 118.64,34.02 2.45,0 4.88,-0.05 7.31,-0.14 11.04,-0.44 20.34,8.15 20.78,19.19 0.43,11.04 -8.16,20.34 -19.2,20.78"
             style="fill:#781d3a;fill-opacity:1;fill-rule:nonzero;stroke:none"
             id="path24" />
          <path
             inkscape:connector-curvature="0"
             d="m 2704.53,1058.8 c -29.38,30.89 -65.26,56.37 -106.24,71.49 -10.37,3.82 -21.87,-1.48 -25.69,-11.84 -3.82,-10.37 1.49,-21.87 11.85,-25.69 34.33,-12.65 65.35,-34.44 91.1,-61.53 7.61,-8 20.27,-8.32 28.27,-0.71 8.01,7.61 8.33,20.27 0.72,28.27"
             style="fill:#781d3a;fill-opacity:1;fill-rule:nonzero;stroke:none"
             id="path26" />
          <path
             inkscape:connector-curvature="0"
             d="m 2811.6,897.711 c -17.14,33.129 -35.46,66.16 -56.77,97.738 -6.18,9.161 -18.61,11.571 -27.77,5.391 -9.15,-6.18 -11.56,-18.61 -5.38,-27.77 20.01,-29.648 37.62,-61.3 54.4,-93.738 5.07,-9.812 17.14,-13.652 26.95,-8.57 9.81,5.066 13.65,17.136 8.57,26.949"
             style="fill:#781d3a;fill-opacity:1;fill-rule:nonzero;stroke:none"
             id="path28" />
          <path
             inkscape:connector-curvature="0"
             d="m 2891.9,740.441 c -25.75,24.379 -41.49,56.161 -47.3,91.778 -1.77,10.902 -12.04,18.312 -22.95,16.543 -10.9,-1.774 -18.3,-12.043 -16.54,-22.942 6.99,-43.289 26.69,-83.621 59.3,-114.441 8.03,-7.59 20.69,-7.238 28.28,0.793 7.59,8.019 7.23,20.68 -0.79,28.269"
             style="fill:#781d3a;fill-opacity:1;fill-rule:nonzero;stroke:none"
             id="path30" />
          <path
             inkscape:connector-curvature="0"
             d="m 3082.75,836.52 c -23.23,-22.391 -52.12,-38.938 -83.21,-47.84 -10.62,-3.039 -16.76,-14.11 -13.72,-24.731 3.05,-10.621 14.12,-16.758 24.74,-13.719 37.35,10.711 71.88,30.461 99.94,57.481 7.95,7.66 8.19,20.32 0.53,28.281 -7.67,7.949 -20.33,8.188 -28.28,0.528"
             style="fill:#781d3a;fill-opacity:1;fill-rule:nonzero;stroke:none"
             id="path32" />
          <path
             inkscape:connector-curvature="0"
             d="m 3199.51,953.422 c -21.88,-24.09 -43.13,-48.113 -65.39,-70.57 -7.77,-7.852 -7.71,-20.512 0.14,-28.293 7.84,-7.77 20.51,-7.707 28.28,0.14 23.31,23.539 44.93,48.012 66.57,71.813 7.43,8.179 6.82,20.828 -1.35,28.258 -8.18,7.421 -20.82,6.82 -28.25,-1.36"
             style="fill:#781d3a;fill-opacity:1;fill-rule:nonzero;stroke:none"
             id="path34" />
          <path
             inkscape:connector-curvature="0"
             d="m 3292.37,1091.65 c -12.2,-30.02 -29.19,-58.37 -48.86,-85.11 -6.55,-8.899 -4.64,-21.419 4.26,-27.958 8.9,-6.551 21.42,-4.641 27.96,4.258 21.13,28.74 39.92,59.87 53.7,93.74 4.16,10.23 -0.76,21.9 -11,26.06 -10.23,4.16 -21.9,-0.76 -26.06,-10.99"
             style="fill:#781d3a;fill-opacity:1;fill-rule:nonzero;stroke:none"
             id="path36" />
          <path
             inkscape:connector-curvature="0"
             d="m 3283.06,1248.9 c 16.02,-25.91 24.57,-55.07 24.58,-84.96 0,-4.48 -0.19,-8.97 -0.58,-13.48 -0.95,-11.01 7.21,-20.7 18.21,-21.64 11,-0.95 20.69,7.2 21.64,18.21 0.49,5.65 0.73,11.29 0.73,16.91 0,37.57 -10.81,74.08 -30.56,106 -5.81,9.39 -18.14,12.3 -27.53,6.49 -9.39,-5.82 -12.3,-18.14 -6.49,-27.53"
             style="fill:#781d3a;fill-opacity:1;fill-rule:nonzero;stroke:none"
             id="path38" />
          <path
             inkscape:connector-curvature="0"
             d="m 3097.76,1387.83 c 50.02,-25.79 99.35,-51.6 139.66,-86.7 8.33,-7.25 20.97,-6.36 28.21,1.97 7.25,8.34 6.37,20.97 -1.97,28.22 -45.18,39.22 -97.53,66.18 -147.55,92.05 -9.81,5.07 -21.88,1.22 -26.94,-8.59 -5.07,-9.82 -1.23,-21.88 8.59,-26.95"
             style="fill:#781d3a;fill-opacity:1;fill-rule:nonzero;stroke:none"
             id="path40" />
          <path
             inkscape:connector-curvature="0"
             d="m 2909.26,1536.92 c 32.27,-49.33 77.62,-85.74 125.77,-114.63 9.47,-5.69 21.75,-2.61 27.44,6.86 5.68,9.47 2.6,21.76 -6.87,27.44 -45,26.98 -85.19,59.84 -112.86,102.22 -6.04,9.24 -18.44,11.84 -27.68,5.8 -9.25,-6.05 -11.85,-18.44 -5.8,-27.69"
             style="fill:#781d3a;fill-opacity:1;fill-rule:nonzero;stroke:none"
             id="path42" />
          <path
             inkscape:connector-curvature="0"
             d="m 2901.25,1767.36 c -16.41,-33.02 -24.19,-69.28 -24.19,-105.44 0,-18.54 2.04,-37.07 6.04,-55.19 2.38,-10.79 13.05,-17.6 23.84,-15.22 10.78,2.38 17.6,13.05 15.22,23.84 -3.38,15.31 -5.1,30.97 -5.1,46.57 0,30.44 6.56,60.59 20.01,87.63 4.92,9.89 0.89,21.9 -9,26.81 -9.89,4.92 -21.9,0.89 -26.82,-9"
             style="fill:#781d3a;fill-opacity:1;fill-rule:nonzero;stroke:none"
             id="path44" />
          <path
             inkscape:connector-curvature="0"
             d="m 3003.08,1944.86 c -28.13,-35.06 -52.17,-73.42 -72.71,-112.76 -5.11,-9.79 -1.32,-21.88 8.47,-26.99 9.79,-5.11 21.87,-1.32 26.99,8.47 19.55,37.46 42.27,73.64 68.44,106.24 6.91,8.61 5.54,21.2 -3.08,28.11 -8.61,6.92 -21.2,5.54 -28.11,-3.07"
             style="fill:#781d3a;fill-opacity:1;fill-rule:nonzero;stroke:none"
             id="path46" />
          <path
             inkscape:connector-curvature="0"
             d="m 897.449,372.211 c 1.711,0.328 154.091,22.687 307.991,128.129 76.89,52.742 154.14,126.48 212.05,228.601 57.94,102.09 96.26,232.368 96.23,396.809 0,5.41 -0.05,10.84 -0.13,16.3 -0.16,11.05 -9.24,19.87 -20.29,19.71 -11.04,-0.16 -19.86,-9.24 -19.7,-20.29 0.07,-5.29 0.12,-10.53 0.12,-15.72 -0.04,-158.281 -36.61,-281.07 -91.02,-377.078 -40.84,-71.992 -91.84,-128.973 -145.56,-174.09 -80.55,-67.684 -167.3,-108.562 -233.82,-132.371 -33.254,-11.91 -61.422,-19.563 -81.156,-24.199 -9.867,-2.332 -17.629,-3.903 -22.859,-4.891 -2.614,-0.492 -4.598,-0.832 -5.899,-1.051 l -1.426,-0.23 -0.316,-0.051 -0.047,-0.008 c -10.926,-1.609 -18.48,-11.769 -16.871,-22.699 1.609,-10.934 11.777,-18.48 22.703,-16.871"
             style="fill:#781d3a;fill-opacity:1;fill-rule:nonzero;stroke:none"
             id="path48" />
          <path
             inkscape:connector-curvature="0"
             d="m 2977.44,2725.21 c -1.13,-0.74 -40.21,-26.06 -85.47,-77.68 -84.19,-95.95 -121.72,-207.13 -121.65,-314.82 0.03,-124.74 49.83,-244.78 133.72,-333.96 83.84,-89.16 202.44,-147.51 338.94,-147.47 35.92,0 73.05,4.03 111.03,12.53 3.62,0.81 7.26,1.66 10.92,2.55 10.73,2.62 17.31,13.44 14.7,24.17 -2.62,10.73 -13.44,17.31 -24.17,14.7 -3.39,-0.83 -6.8,-1.62 -10.2,-2.39 -35.18,-7.87 -69.35,-11.56 -102.28,-11.56 -124.94,0.03 -232.68,53.03 -309.81,134.89 -77.08,81.86 -122.89,192.53 -122.85,306.54 0.06,98.5 33.84,199.51 111.73,288.46 20.99,23.94 40.53,41.74 54.7,53.45 7.08,5.86 12.82,10.19 16.71,13.02 1.95,1.41 3.44,2.45 4.4,3.11 l 1.05,0.7 0.21,0.15 h 0.01 c 9.28,5.98 11.95,18.36 5.96,27.64 -5.99,9.29 -18.37,11.96 -27.65,5.97"
             style="fill:#781d3a;fill-opacity:1;fill-rule:nonzero;stroke:none"
             id="path50" />
          <path
             inkscape:connector-curvature="0"
             d="M 722.27,2425.74 223.043,2259.33 936.418,210.91 1919.54,575.781 3064.99,264.301 3772.31,1022.87 2904.26,2942.77 2443.78,2435.2 c -7.42,-8.18 -6.8,-20.83 1.38,-28.25 8.18,-7.42 20.83,-6.81 28.25,1.37 L 2892.93,2870.75 3724.88,1030.66 3052.2,309.23 1917.65,617.75 960.77,262.609 274.148,2234.2 734.922,2387.79 c 10.476,3.49 16.141,14.82 12.648,25.3 -3.496,10.48 -14.82,16.14 -25.297,12.64"
             style="fill:#272626;fill-opacity:1;fill-rule:nonzero;stroke:none"
             id="path52" />
          <path
             inkscape:connector-curvature="0"
             d="m 1937.74,602.559 -200,660.001 c -3.21,10.57 -14.37,16.55 -24.94,13.34 -10.58,-3.2 -16.55,-14.37 -13.34,-24.94 l 200,-659.999 c 3.2,-10.57 14.36,-16.539 24.94,-13.34 10.57,3.199 16.54,14.367 13.34,24.938"
             style="fill:#272626;fill-opacity:1;fill-rule:nonzero;stroke:none"
             id="path54" />
          <path
             inkscape:connector-curvature="0"
             d="m 3082.45,298.441 -171.9,485 c -3.69,10.411 -15.12,15.86 -25.53,12.168 -10.41,-3.687 -15.86,-15.121 -12.17,-25.527 l 171.89,-485 c 3.7,-10.41 15.13,-15.863 25.54,-12.172 10.41,3.692 15.86,15.121 12.17,25.531"
             style="fill:#272626;fill-opacity:1;fill-rule:nonzero;stroke:none"
             id="path56" />
          <path
             inkscape:connector-curvature="0"
             d="M 1158.14,2354.51 H 963.02 v -83.44 c -5.606,-11.45 -17.051,-22.9 -31.543,-25.82 l -149.082,-20.1 c -3.036,-14.25 -3.036,-25.82 -3.036,-40.19 l 574.131,2.92 c 0,2.92 2.8,40.19 2.8,43 l -198.15,11.57 v 112.06"
             style="fill:#272626;fill-opacity:1;fill-rule:nonzero;stroke:none"
             id="path58" />
          <path
             inkscape:connector-curvature="0"
             d="m 1364.94,3311.46 h -206.8 v 1142.19 h 206.8 c 318.5,0 513.62,-97.56 513.62,-522.26 0,-479.26 -189.51,-619.93 -513.62,-619.93 z m 14.25,1185.3 H 782.395 c 0,-14.37 -5.84,-25.82 -3.036,-43.11 l 152.118,-17.18 c 14.492,-2.92 25.937,-17.17 31.543,-28.74 V 2346.76 h 195.12 v 921.7 h 221.05 c 439.07,0 694.48,186.59 694.48,674.38 0,439.07 -255.41,553.92 -694.48,553.92"
             style="fill:#272626;fill-opacity:1;fill-rule:nonzero;stroke:none"
             id="path60" />
          <path
             inkscape:connector-curvature="0"
             d="m 1409.02,1821.26 h 858.04 l -447.71,1337.31 z m 390.23,1391.87 h 189.5 l 660.13,-1954.32 197.92,-11.56 c 0,-2.8 -2.8,-40.08 -2.8,-43 l -574.13,-2.92 c 0,14.38 0,25.94 3.03,40.2 l 149.08,20.09 c 23.14,2.92 23.14,20.09 23.14,34.47 l -157.96,467.81 h -895.44 l -152.12,-499.36 332.99,-17.29 c 0,-2.8 -2.81,-40.08 -2.81,-43 l -576.936,-2.92 c 0,14.38 3.039,25.94 3.039,40.2 l 149.077,20.09 c 22.9,2.92 28.74,23.01 34.59,37.39 l 619.7,1914.12"
             style="fill:#781d3a;fill-opacity:1;fill-rule:nonzero;stroke:none"
             id="path62" />
        </g>
      </g>
    </g>
  </g>
</svg>
